<svg xmlns="http://www.w3.org/2000/svg" xmlns:xlink="http://www.w3.org/1999/xlink" width="500" zoomAndPan="magnify" viewBox="0 0 375 374.999991" height="500" preserveAspectRatio="xMidYMid meet" version="1.0"><defs><g/><clipPath id="ccb38bf76b"><rect x="0" width="308" y="0" height="153"/></clipPath><clipPath id="a9d734b257"><path d="M 165 31 L 199.921875 31 L 199.921875 51 L 165 51 Z M 165 31 " clip-rule="nonzero"/></clipPath><clipPath id="9e80657f6b"><rect x="0" width="200" y="0" height="74"/></clipPath></defs><g transform="matrix(1, 0, 0, 1, 34, 104)"><g clip-path="url(#ccb38bf76b)"><g fill="#000000" fill-opacity="1"><g transform="translate(1.249188, 121.963846)"><g><path d="M 69.757812 -1.5625 C 70.214844 -1.5625 70.589844 -1.417969 70.882812 -1.125 C 71.171875 -0.832031 71.316406 -0.457031 71.316406 0 C 71.316406 0.457031 71.171875 0.832031 70.882812 1.125 C 70.589844 1.417969 70.214844 1.5625 69.757812 1.5625 L 58.84375 1.5625 C 58.382812 1.5625 58.007812 1.417969 57.71875 1.125 C 57.425781 0.832031 57.28125 0.457031 57.28125 0 C 57.28125 -0.457031 57.425781 -0.832031 57.71875 -1.125 C 58.007812 -1.417969 58.382812 -1.5625 58.84375 -1.5625 C 59.386719 -1.5625 59.761719 -1.667969 59.972656 -1.875 C 60.179688 -2.085938 60.285156 -2.460938 60.285156 -3.003906 L 60.285156 -54.570312 L 61.371094 -54.570312 L 61.371094 -53.484375 L 16.765625 -53.484375 L 16.765625 -54.570312 L 17.855469 -54.570312 L 17.855469 -3.003906 C 17.855469 -2.449219 17.953125 -2.0625 18.152344 -1.851562 C 18.332031 -1.660156 18.664062 -1.5625 19.140625 -1.5625 C 19.59375 -1.5625 19.96875 -1.449219 20.265625 -1.226562 C 20.660156 -0.929688 20.859375 -0.519531 20.859375 0 C 20.859375 0.519531 20.660156 0.929688 20.265625 1.226562 C 19.96875 1.449219 19.59375 1.5625 19.140625 1.5625 L 8.226562 1.5625 C 7.765625 1.5625 7.390625 1.417969 7.101562 1.125 C 6.808594 0.832031 6.664062 0.457031 6.664062 0 C 6.664062 -0.457031 6.808594 -0.832031 7.101562 -1.125 C 7.390625 -1.417969 7.765625 -1.5625 8.226562 -1.5625 C 8.769531 -1.5625 9.144531 -1.667969 9.355469 -1.875 C 9.5625 -2.085938 9.667969 -2.460938 9.667969 -3.003906 L 9.667969 -107.246094 C 9.667969 -107.722656 9.570312 -108.050781 9.378906 -108.230469 C 9.167969 -108.429688 8.78125 -108.53125 8.226562 -108.53125 C 7.765625 -108.53125 7.390625 -108.675781 7.101562 -108.964844 C 6.808594 -109.257812 6.664062 -109.632812 6.664062 -110.089844 C 6.664062 -110.542969 6.773438 -110.917969 7 -111.21875 C 7.296875 -111.613281 7.703125 -111.8125 8.226562 -111.8125 L 19.140625 -111.8125 C 19.652344 -111.8125 20.066406 -111.652344 20.382812 -111.335938 C 20.699219 -111.015625 20.859375 -110.601562 20.859375 -110.089844 C 20.859375 -109.570312 20.660156 -109.164062 20.265625 -108.867188 C 19.96875 -108.640625 19.59375 -108.53125 19.140625 -108.53125 C 18.648438 -108.53125 18.3125 -108.4375 18.128906 -108.253906 C 17.945312 -108.070312 17.855469 -107.734375 17.855469 -107.246094 L 17.855469 -55.679688 L 16.765625 -55.679688 L 16.765625 -56.765625 L 61.371094 -56.765625 L 61.371094 -55.679688 L 60.285156 -55.679688 L 60.285156 -107.246094 C 60.285156 -107.722656 60.1875 -108.050781 59.996094 -108.230469 C 59.785156 -108.429688 59.398438 -108.53125 58.84375 -108.53125 C 58.382812 -108.53125 58.007812 -108.675781 57.71875 -108.964844 C 57.425781 -109.257812 57.28125 -109.632812 57.28125 -110.089844 C 57.28125 -110.542969 57.390625 -110.917969 57.617188 -111.21875 C 57.914062 -111.613281 58.320312 -111.8125 58.84375 -111.8125 L 69.757812 -111.8125 C 70.277344 -111.8125 70.6875 -111.613281 70.980469 -111.21875 C 71.207031 -110.917969 71.316406 -110.542969 71.316406 -110.089844 C 71.316406 -109.632812 71.171875 -109.257812 70.882812 -108.964844 C 70.589844 -108.675781 70.214844 -108.53125 69.757812 -108.53125 C 69.265625 -108.53125 68.929688 -108.4375 68.746094 -108.253906 C 68.5625 -108.070312 68.472656 -107.734375 68.472656 -107.246094 L 68.472656 -3.003906 C 68.472656 -2.449219 68.570312 -2.0625 68.769531 -1.851562 C 68.949219 -1.660156 69.28125 -1.5625 69.757812 -1.5625 Z M 69.757812 0.613281 C 68.652344 0.613281 67.792969 0.289062 67.183594 -0.363281 C 66.59375 -0.996094 66.296875 -1.875 66.296875 -3.003906 L 66.296875 -107.246094 C 66.296875 -108.335938 66.601562 -109.183594 67.207031 -109.792969 C 67.816406 -110.402344 68.664062 -110.703125 69.757812 -110.703125 C 69.613281 -110.703125 69.476562 -110.636719 69.34375 -110.503906 C 69.210938 -110.371094 69.144531 -110.234375 69.144531 -110.089844 L 69.144531 -110.105469 C 69.160156 -110.042969 69.195312 -109.976562 69.242188 -109.914062 C 69.378906 -109.730469 69.550781 -109.636719 69.757812 -109.636719 L 58.84375 -109.636719 C 59.046875 -109.636719 59.21875 -109.730469 59.355469 -109.914062 C 59.40625 -109.976562 59.4375 -110.042969 59.453125 -110.105469 L 59.453125 -110.089844 C 59.453125 -110.234375 59.386719 -110.371094 59.253906 -110.503906 C 59.121094 -110.636719 58.984375 -110.703125 58.84375 -110.703125 C 59.972656 -110.703125 60.851562 -110.410156 61.484375 -109.816406 C 62.136719 -109.207031 62.460938 -108.347656 62.460938 -107.246094 L 62.460938 -54.589844 L 15.679688 -54.589844 L 15.679688 -107.246094 C 15.679688 -108.335938 15.984375 -109.183594 16.589844 -109.792969 C 17.199219 -110.402344 18.046875 -110.703125 19.140625 -110.703125 L 19.152344 -110.703125 C 19.089844 -110.6875 19.027344 -110.652344 18.960938 -110.605469 C 18.777344 -110.46875 18.683594 -110.296875 18.683594 -110.089844 C 18.683594 -110.003906 18.738281 -109.902344 18.84375 -109.796875 C 18.953125 -109.691406 19.050781 -109.636719 19.140625 -109.636719 L 8.226562 -109.636719 C 8.429688 -109.636719 8.601562 -109.730469 8.738281 -109.914062 C 8.789062 -109.976562 8.820312 -110.042969 8.835938 -110.105469 L 8.839844 -110.089844 C 8.839844 -110.234375 8.773438 -110.371094 8.636719 -110.503906 C 8.503906 -110.636719 8.367188 -110.703125 8.226562 -110.703125 C 9.355469 -110.703125 10.234375 -110.410156 10.867188 -109.816406 C 11.519531 -109.207031 11.84375 -108.347656 11.84375 -107.246094 L 11.84375 -3.003906 C 11.84375 -1.863281 11.527344 -0.972656 10.890625 -0.339844 C 10.257812 0.296875 9.371094 0.613281 8.226562 0.613281 C 8.367188 0.613281 8.503906 0.546875 8.636719 0.414062 C 8.773438 0.28125 8.839844 0.140625 8.839844 0 C 8.839844 -0.140625 8.773438 -0.28125 8.636719 -0.414062 C 8.503906 -0.546875 8.367188 -0.613281 8.226562 -0.613281 L 19.140625 -0.613281 L 19.152344 -0.609375 C 19.089844 -0.59375 19.027344 -0.5625 18.960938 -0.515625 C 18.777344 -0.375 18.683594 -0.203125 18.683594 0 C 18.683594 0.203125 18.777344 0.375 18.960938 0.515625 C 19.027344 0.5625 19.089844 0.59375 19.152344 0.609375 L 19.140625 0.613281 C 18.035156 0.613281 17.175781 0.289062 16.566406 -0.363281 C 15.976562 -0.996094 15.679688 -1.875 15.679688 -3.003906 L 15.679688 -55.660156 L 62.460938 -55.660156 L 62.460938 -3.003906 C 62.460938 -1.863281 62.144531 -0.972656 61.507812 -0.339844 C 60.875 0.296875 59.984375 0.613281 58.84375 0.613281 C 58.984375 0.613281 59.121094 0.546875 59.253906 0.414062 C 59.386719 0.28125 59.453125 0.140625 59.453125 0 C 59.453125 -0.140625 59.386719 -0.28125 59.253906 -0.414062 C 59.121094 -0.546875 58.984375 -0.613281 58.84375 -0.613281 L 69.757812 -0.613281 C 69.613281 -0.613281 69.476562 -0.546875 69.34375 -0.414062 C 69.210938 -0.28125 69.144531 -0.140625 69.144531 0 C 69.144531 0.140625 69.210938 0.28125 69.34375 0.414062 C 69.476562 0.546875 69.613281 0.613281 69.757812 0.613281 Z M 69.757812 0.613281 "/></g></g></g><g fill="#000000" fill-opacity="1"><g transform="translate(79.382407, 121.963846)"><g><path d="M 60.445312 -106.949219 L 60.289062 -107.109375 L 61.054688 -107.878906 L 60.453125 -106.972656 C 60.0625 -107.234375 59.820312 -107.550781 59.726562 -107.929688 C 59.597656 -108.433594 59.734375 -108.882812 60.128906 -109.277344 L 60.898438 -108.507812 L 59.992188 -109.113281 C 60.253906 -109.503906 60.574219 -109.746094 60.949219 -109.839844 C 61.453125 -109.96875 61.902344 -109.832031 62.300781 -109.4375 L 61.53125 -108.667969 L 61.53125 -109.753906 L 61.910156 -109.753906 L 62.113281 -109.667969 C 70.777344 -105.988281 77.910156 -99.242188 83.511719 -89.433594 L 83.527344 -89.410156 L 83.542969 -89.382812 C 83.878906 -88.703125 83.761719 -88.074219 83.179688 -87.492188 L 83.167969 -87.484375 L 80.308594 -84.785156 L 79.5625 -85.574219 L 80.332031 -84.804688 C 80.015625 -84.488281 79.652344 -84.328125 79.246094 -84.328125 L 79.089844 -84.328125 C 78.683594 -84.328125 78.347656 -84.460938 78.082031 -84.726562 C 77.816406 -84.992188 77.683594 -85.328125 77.683594 -85.730469 L 78.773438 -85.730469 L 77.726562 -85.433594 C 77.105469 -87.601562 76.226562 -90.011719 75.085938 -92.65625 C 73.972656 -95.234375 72.273438 -97.769531 69.984375 -100.261719 C 67.707031 -102.738281 64.628906 -104.898438 60.75 -106.734375 L 60.578125 -106.816406 Z M 61.984375 -108.488281 L 61.214844 -107.71875 L 61.679688 -108.703125 C 65.816406 -106.742188 69.117188 -104.417969 71.585938 -101.730469 C 74.042969 -99.058594 75.875 -96.320312 77.082031 -93.519531 C 78.261719 -90.785156 79.171875 -88.289062 79.816406 -86.03125 L 79.859375 -85.882812 L 79.859375 -85.730469 C 79.859375 -85.925781 79.78125 -86.105469 79.621094 -86.265625 C 79.460938 -86.421875 79.285156 -86.503906 79.089844 -86.503906 L 79.246094 -86.503906 C 79.050781 -86.503906 78.902344 -86.449219 78.792969 -86.34375 L 78.804688 -86.355469 L 81.664062 -89.054688 L 82.410156 -88.261719 L 81.640625 -89.03125 C 81.484375 -88.875 81.46875 -88.664062 81.597656 -88.410156 L 82.570312 -88.894531 L 81.625 -88.355469 C 76.261719 -97.742188 69.476562 -104.175781 61.265625 -107.667969 L 61.6875 -108.667969 L 61.6875 -107.582031 L 61.082031 -107.582031 L 60.761719 -107.898438 C 60.945312 -107.714844 61.1875 -107.660156 61.476562 -107.730469 C 61.644531 -107.773438 61.753906 -107.832031 61.804688 -107.90625 L 61.742188 -107.816406 L 61.667969 -107.742188 C 61.851562 -107.925781 61.90625 -108.164062 61.835938 -108.457031 C 61.792969 -108.625 61.734375 -108.730469 61.660156 -108.78125 L 61.75 -108.722656 Z M 80.332031 -25.445312 L 83.179688 -22.597656 C 83.761719 -22.015625 83.878906 -21.386719 83.542969 -20.710938 L 83.511719 -20.65625 C 78.015625 -11.0625 70.992188 -4.375 62.445312 -0.585938 L 62.234375 -0.496094 L 61.847656 -0.496094 L 61.847656 -1.582031 L 62.933594 -1.582031 C 62.933594 -1.230469 62.816406 -0.933594 62.578125 -0.695312 C 62.339844 -0.457031 62.042969 -0.335938 61.6875 -0.335938 L 61.53125 -0.335938 L 61.53125 -1.421875 L 62.300781 -0.65625 L 61.992188 -0.347656 L 61.796875 -0.265625 C 57.445312 1.585938 52.980469 2.511719 48.402344 2.511719 L 48.324219 2.511719 L 47.140625 2.34375 L 47.296875 1.265625 L 47.273438 2.351562 C 41.28125 2.242188 35.699219 0.636719 30.523438 -2.46875 C 25.390625 -5.546875 20.882812 -9.703125 17 -14.933594 C 13.132812 -20.144531 10.125 -26.183594 7.976562 -33.050781 C 5.835938 -39.90625 4.765625 -47.238281 4.765625 -55.046875 C 4.765625 -62.855469 5.835938 -70.1875 7.976562 -77.039062 C 10.125 -83.90625 13.132812 -89.945312 17 -95.160156 C 20.882812 -100.390625 25.390625 -104.542969 30.523438 -107.625 C 35.691406 -110.726562 41.269531 -112.382812 47.253906 -112.601562 L 48.402344 -112.601562 C 48.914062 -112.601562 49.328125 -112.445312 49.644531 -112.125 C 49.964844 -111.808594 50.121094 -111.394531 50.121094 -110.882812 C 50.121094 -110.363281 49.925781 -109.953125 49.53125 -109.65625 C 49.230469 -109.433594 48.855469 -109.320312 48.402344 -109.320312 L 47.453125 -109.320312 L 47.453125 -110.40625 L 47.503906 -109.320312 C 41.238281 -109.019531 35.644531 -106.507812 30.726562 -101.792969 C 25.734375 -97.007812 21.765625 -90.554688 18.816406 -82.433594 C 15.855469 -74.277344 14.375 -65.148438 14.375 -55.046875 C 14.375 -44.945312 15.855469 -35.84375 18.816406 -27.738281 C 21.765625 -19.667969 25.738281 -13.214844 30.730469 -8.375 C 35.648438 -3.605469 41.1875 -1.074219 47.347656 -0.769531 L 47.296875 0.316406 L 47.296875 -0.769531 L 48.402344 -0.769531 C 52.675781 -0.769531 56.851562 -1.6875 60.925781 -3.523438 L 61.140625 -3.617188 L 61.53125 -3.617188 L 61.53125 -2.53125 L 61.054688 -3.507812 C 64.828125 -5.34375 67.828125 -7.5 70.054688 -9.980469 C 72.296875 -12.476562 73.976562 -14.992188 75.089844 -17.519531 C 76.226562 -20.113281 77.109375 -22.492188 77.726562 -24.65625 L 78.773438 -24.359375 L 77.683594 -24.359375 C 77.683594 -25.019531 77.992188 -25.5 78.601562 -25.804688 L 78.832031 -25.921875 L 79.089844 -25.921875 C 79.601562 -25.921875 80.015625 -25.761719 80.332031 -25.445312 Z M 78.792969 -23.90625 C 78.902344 -23.800781 79 -23.746094 79.089844 -23.746094 L 79.089844 -24.832031 L 79.574219 -23.859375 C 79.765625 -23.957031 79.859375 -24.121094 79.859375 -24.359375 L 79.859375 -24.207031 L 79.816406 -24.0625 C 79.171875 -21.796875 78.257812 -19.328125 77.078125 -16.644531 C 75.871094 -13.902344 74.070312 -11.195312 71.671875 -8.527344 C 69.257812 -5.835938 66.035156 -3.511719 62.007812 -1.554688 L 61.78125 -1.441406 L 61.371094 -1.441406 L 61.371094 -2.53125 L 61.820312 -1.539062 C 57.460938 0.421875 52.988281 1.402344 48.402344 1.402344 L 47.242188 1.402344 C 40.535156 1.074219 34.527344 -1.664062 29.21875 -6.8125 C 23.984375 -11.882812 19.835938 -18.609375 16.773438 -26.992188 C 13.722656 -35.335938 12.199219 -44.6875 12.199219 -55.046875 C 12.199219 -65.402344 13.722656 -74.777344 16.773438 -83.175781 C 19.835938 -91.613281 23.984375 -98.34375 29.222656 -103.363281 C 34.53125 -108.453125 40.589844 -111.164062 47.402344 -111.492188 L 47.425781 -111.496094 L 48.402344 -111.496094 L 48.414062 -111.492188 C 48.351562 -111.476562 48.289062 -111.445312 48.222656 -111.398438 C 48.039062 -111.257812 47.949219 -111.085938 47.949219 -110.882812 C 47.949219 -110.792969 48 -110.695312 48.109375 -110.589844 C 48.214844 -110.480469 48.3125 -110.425781 48.402344 -110.425781 L 47.296875 -110.425781 L 47.296875 -111.515625 L 47.335938 -110.429688 C 41.722656 -110.222656 36.492188 -108.667969 31.640625 -105.757812 C 26.753906 -102.828125 22.457031 -98.863281 18.746094 -93.863281 C 15.023438 -88.847656 12.125 -83.023438 10.054688 -76.390625 C 7.976562 -69.75 6.941406 -62.632812 6.941406 -55.046875 C 6.941406 -47.457031 7.976562 -40.34375 10.054688 -33.699219 C 12.125 -27.066406 15.023438 -21.246094 18.746094 -16.230469 C 22.457031 -11.230469 26.753906 -7.265625 31.640625 -4.332031 C 36.484375 -1.425781 41.707031 0.0742188 47.316406 0.179688 L 47.382812 0.179688 L 48.554688 0.347656 L 48.402344 1.421875 L 48.402344 0.335938 C 52.683594 0.335938 56.867188 -0.53125 60.949219 -2.265625 L 61.371094 -1.265625 L 60.605469 -2.035156 L 61.082031 -2.511719 L 61.6875 -2.511719 C 61.441406 -2.511719 61.226562 -2.417969 61.039062 -2.230469 C 60.851562 -2.046875 60.761719 -1.828125 60.761719 -1.582031 L 60.761719 -2.667969 L 62.003906 -2.667969 L 62.003906 -1.582031 L 61.566406 -2.574219 C 69.679688 -6.171875 76.363281 -12.558594 81.625 -21.738281 L 82.570312 -21.195312 L 81.597656 -21.683594 C 81.46875 -21.425781 81.484375 -21.21875 81.640625 -21.058594 Z M 78.792969 -23.90625 "/></g></g></g><g fill="#000000" fill-opacity="1"><g transform="translate(165.898336, 121.963846)"><g><path d="M 60.582031 -111.8125 C 61.09375 -111.8125 61.507812 -111.652344 61.824219 -111.335938 C 62.144531 -111.015625 62.300781 -110.601562 62.300781 -110.089844 C 62.300781 -109.570312 62.105469 -109.164062 61.710938 -108.867188 C 61.410156 -108.640625 61.035156 -108.53125 60.582031 -108.53125 C 60.089844 -108.53125 59.753906 -108.4375 59.570312 -108.253906 C 59.386719 -108.070312 59.296875 -107.734375 59.296875 -107.246094 L 59.296875 -27.046875 C 59.296875 -21.578125 57.980469 -16.621094 55.347656 -12.179688 C 52.722656 -7.75 49.195312 -4.21875 44.765625 -1.59375 C 40.328125 1.03125 35.378906 2.402344 29.917969 2.511719 C 21.796875 2.511719 14.886719 -0.390625 9.1875 -6.199219 L 9.964844 -6.960938 L 9.363281 -6.054688 C 8.984375 -6.304688 8.71875 -6.507812 8.5625 -6.664062 L 8.246094 -6.984375 L 8.246094 -7.433594 C 8.246094 -7.238281 8.296875 -7.089844 8.40625 -6.980469 C 8.511719 -6.875 8.664062 -6.820312 8.859375 -6.820312 L 8.277344 -6.820312 L 7.953125 -7.304688 C 7.78125 -7.5625 7.5625 -7.824219 7.296875 -8.089844 L 7.261719 -8.125 L 7.226562 -8.167969 C 2.738281 -13.640625 0.496094 -19.933594 0.496094 -27.046875 C 0.496094 -27.507812 0.640625 -27.882812 0.929688 -28.171875 C 1.222656 -28.464844 1.597656 -28.609375 2.054688 -28.609375 L 4.269531 -28.609375 C 4.78125 -28.609375 5.195312 -28.453125 5.515625 -28.132812 C 5.988281 -27.660156 6.058594 -27.082031 5.71875 -26.402344 L 4.746094 -26.890625 L 5.820312 -26.738281 C 5.621094 -25.328125 5.597656 -22.972656 5.753906 -19.664062 C 5.898438 -16.535156 7.265625 -13.429688 9.847656 -10.347656 L 9.886719 -10.300781 L 10.554688 -9.304688 L 9.648438 -8.699219 L 9.648438 -9.789062 C 10.054688 -9.789062 10.417969 -9.628906 10.734375 -9.3125 L 11.050781 -8.992188 L 11.050781 -8.542969 C 11.050781 -8.738281 11 -8.886719 10.890625 -8.996094 L 11.523438 -8.363281 C 16.585938 -3.300781 22.707031 -0.769531 29.894531 -0.769531 C 33.769531 -0.769531 37.300781 -1.941406 40.484375 -4.277344 C 43.710938 -6.648438 46.289062 -9.8125 48.214844 -13.761719 C 50.144531 -17.726562 51.109375 -22.152344 51.109375 -27.046875 L 51.109375 -107.246094 C 51.109375 -107.734375 51.019531 -108.070312 50.835938 -108.253906 C 50.652344 -108.4375 50.316406 -108.53125 49.824219 -108.53125 C 49.375 -108.53125 48.996094 -108.640625 48.699219 -108.867188 C 48.304688 -109.164062 48.105469 -109.570312 48.105469 -110.089844 C 48.105469 -110.601562 48.265625 -111.015625 48.582031 -111.335938 C 48.898438 -111.652344 49.316406 -111.8125 49.824219 -111.8125 Z M 60.582031 -109.636719 L 49.824219 -109.636719 C 49.914062 -109.636719 50.011719 -109.691406 50.121094 -109.796875 C 50.226562 -109.902344 50.28125 -110.003906 50.28125 -110.089844 C 50.28125 -110.296875 50.1875 -110.46875 50.003906 -110.605469 C 49.941406 -110.652344 49.875 -110.6875 49.8125 -110.703125 L 49.824219 -110.703125 C 50.917969 -110.703125 51.765625 -110.402344 52.375 -109.792969 C 52.980469 -109.183594 53.285156 -108.335938 53.285156 -107.246094 L 53.285156 -27.046875 C 53.285156 -21.820312 52.246094 -17.074219 50.171875 -12.8125 C 48.089844 -8.539062 45.289062 -5.109375 41.769531 -2.523438 C 38.203125 0.09375 34.246094 1.402344 29.894531 1.402344 C 22.109375 1.402344 15.472656 -1.339844 9.988281 -6.824219 L 9.355469 -7.457031 C 9.035156 -7.773438 8.878906 -8.136719 8.878906 -8.542969 L 9.964844 -8.542969 L 9.195312 -7.773438 C 9.304688 -7.664062 9.453125 -7.613281 9.648438 -7.613281 L 9.066406 -7.613281 L 8.109375 -9.046875 L 9.015625 -9.648438 L 8.183594 -8.949219 C 5.285156 -12.40625 3.75 -15.945312 3.578125 -19.5625 C 3.417969 -23.007812 3.449219 -25.5 3.667969 -27.042969 L 3.695312 -27.21875 L 3.773438 -27.375 C 3.75 -27.328125 3.738281 -27.257812 3.738281 -27.167969 C 3.738281 -26.945312 3.816406 -26.753906 3.976562 -26.597656 C 4.082031 -26.488281 4.179688 -26.433594 4.269531 -26.433594 L 2.054688 -26.433594 C 2.199219 -26.433594 2.335938 -26.503906 2.46875 -26.636719 C 2.601562 -26.769531 2.667969 -26.90625 2.667969 -27.046875 C 2.667969 -20.453125 4.75 -14.621094 8.90625 -9.546875 L 8.066406 -8.859375 L 8.835938 -9.625 C 9.203125 -9.261719 9.511719 -8.886719 9.761719 -8.511719 L 8.859375 -7.910156 L 8.859375 -8.996094 C 9.265625 -8.996094 9.625 -8.835938 9.941406 -8.519531 C 10.261719 -8.203125 10.421875 -7.839844 10.421875 -7.433594 L 9.332031 -7.433594 L 10.101562 -8.203125 C 10.15625 -8.148438 10.3125 -8.035156 10.570312 -7.863281 L 10.664062 -7.800781 L 10.742188 -7.722656 C 16.011719 -2.351562 22.390625 0.335938 29.875 0.335938 C 34.957031 0.234375 39.550781 -1.03125 43.65625 -3.464844 C 47.765625 -5.902344 51.042969 -9.175781 53.476562 -13.289062 C 55.90625 -17.386719 57.121094 -21.972656 57.121094 -27.046875 L 57.121094 -107.246094 C 57.121094 -108.335938 57.425781 -109.183594 58.035156 -109.792969 C 58.640625 -110.402344 59.492188 -110.703125 60.582031 -110.703125 L 60.59375 -110.703125 C 60.53125 -110.6875 60.46875 -110.652344 60.402344 -110.605469 C 60.21875 -110.46875 60.128906 -110.296875 60.128906 -110.089844 C 60.128906 -110.003906 60.179688 -109.902344 60.289062 -109.796875 C 60.394531 -109.691406 60.492188 -109.636719 60.582031 -109.636719 Z M 60.582031 -109.636719 "/></g></g></g><g fill="#000000" fill-opacity="1"><g transform="translate(234.225358, 121.963846)"><g><path d="M 19.140625 -108.53125 C 18.648438 -108.53125 18.3125 -108.4375 18.128906 -108.253906 C 17.945312 -108.070312 17.855469 -107.734375 17.855469 -107.246094 L 17.855469 -3.003906 C 17.855469 -2.449219 17.953125 -2.0625 18.152344 -1.851562 C 18.332031 -1.660156 18.664062 -1.5625 19.140625 -1.5625 C 19.59375 -1.5625 19.96875 -1.449219 20.265625 -1.226562 C 20.660156 -0.929688 20.859375 -0.519531 20.859375 0 C 20.859375 0.519531 20.660156 0.929688 20.265625 1.226562 C 19.96875 1.449219 19.59375 1.5625 19.140625 1.5625 L 8.226562 1.5625 C 7.765625 1.5625 7.390625 1.417969 7.101562 1.125 C 6.808594 0.832031 6.664062 0.457031 6.664062 0 C 6.664062 -0.457031 6.808594 -0.832031 7.101562 -1.125 C 7.390625 -1.417969 7.765625 -1.5625 8.226562 -1.5625 C 8.769531 -1.5625 9.144531 -1.667969 9.355469 -1.875 C 9.5625 -2.085938 9.667969 -2.460938 9.667969 -3.003906 L 9.667969 -107.246094 C 9.667969 -107.722656 9.570312 -108.050781 9.378906 -108.230469 C 9.167969 -108.429688 8.78125 -108.53125 8.226562 -108.53125 C 7.765625 -108.53125 7.390625 -108.675781 7.101562 -108.964844 C 6.808594 -109.257812 6.664062 -109.632812 6.664062 -110.089844 C 6.664062 -110.542969 6.773438 -110.917969 7 -111.21875 C 7.296875 -111.613281 7.703125 -111.8125 8.226562 -111.8125 L 19.140625 -111.8125 C 19.652344 -111.8125 20.066406 -111.652344 20.382812 -111.335938 C 20.699219 -111.015625 20.859375 -110.601562 20.859375 -110.089844 C 20.859375 -109.570312 20.660156 -109.164062 20.265625 -108.867188 C 19.96875 -108.640625 19.59375 -108.53125 19.140625 -108.53125 Z M 19.140625 -110.703125 L 19.152344 -110.703125 C 19.089844 -110.6875 19.027344 -110.652344 18.960938 -110.605469 C 18.777344 -110.46875 18.683594 -110.296875 18.683594 -110.089844 C 18.683594 -110.003906 18.738281 -109.902344 18.84375 -109.796875 C 18.953125 -109.691406 19.050781 -109.636719 19.140625 -109.636719 L 8.226562 -109.636719 C 8.429688 -109.636719 8.601562 -109.730469 8.738281 -109.914062 C 8.789062 -109.976562 8.820312 -110.042969 8.835938 -110.105469 L 8.839844 -110.089844 C 8.839844 -110.234375 8.773438 -110.371094 8.636719 -110.503906 C 8.503906 -110.636719 8.367188 -110.703125 8.226562 -110.703125 C 9.355469 -110.703125 10.234375 -110.410156 10.867188 -109.816406 C 11.519531 -109.207031 11.84375 -108.347656 11.84375 -107.246094 L 11.84375 -3.003906 C 11.84375 -1.863281 11.527344 -0.972656 10.890625 -0.339844 C 10.257812 0.296875 9.371094 0.613281 8.226562 0.613281 C 8.367188 0.613281 8.503906 0.546875 8.636719 0.414062 C 8.773438 0.28125 8.839844 0.140625 8.839844 0 C 8.839844 -0.140625 8.773438 -0.28125 8.636719 -0.414062 C 8.503906 -0.546875 8.367188 -0.613281 8.226562 -0.613281 L 19.140625 -0.613281 L 19.152344 -0.609375 C 19.089844 -0.59375 19.027344 -0.5625 18.960938 -0.515625 C 18.777344 -0.375 18.683594 -0.203125 18.683594 0 C 18.683594 0.203125 18.777344 0.375 18.960938 0.515625 C 19.027344 0.5625 19.089844 0.59375 19.152344 0.609375 L 19.140625 0.613281 C 18.035156 0.613281 17.175781 0.289062 16.566406 -0.363281 C 15.976562 -0.996094 15.679688 -1.875 15.679688 -3.003906 L 15.679688 -107.246094 C 15.679688 -108.335938 15.984375 -109.183594 16.589844 -109.792969 C 17.199219 -110.402344 18.046875 -110.703125 19.140625 -110.703125 Z M 69.757812 -1.5625 C 70.207031 -1.5625 70.585938 -1.449219 70.882812 -1.226562 C 71.277344 -0.929688 71.476562 -0.519531 71.476562 0 C 71.476562 0.519531 71.277344 0.929688 70.882812 1.226562 C 70.585938 1.449219 70.207031 1.5625 69.757812 1.5625 L 58.367188 1.5625 C 57.910156 1.5625 57.535156 1.417969 57.242188 1.125 C 56.949219 0.832031 56.804688 0.457031 56.804688 0 C 56.804688 -0.457031 56.949219 -0.832031 57.242188 -1.125 C 57.535156 -1.417969 57.910156 -1.5625 58.367188 -1.5625 C 58.417969 -1.5625 58.457031 -1.5625 58.488281 -1.570312 L 58.476562 -1.5625 C 58.355469 -1.515625 58.257812 -1.417969 58.1875 -1.277344 L 59.160156 -0.789062 L 58.101562 -1.054688 C 58.089844 -1 58.085938 -0.949219 58.09375 -0.914062 C 58.089844 -0.933594 58.074219 -0.96875 58.046875 -1.019531 C 57.9375 -1.21875 57.734375 -1.464844 57.441406 -1.761719 L 57.421875 -1.78125 L 20.898438 -41.8125 L 20.898438 -42.390625 L 21.988281 -42.390625 L 21.21875 -41.621094 L 20.742188 -42.097656 L 20.742188 -42.707031 C 20.742188 -43.113281 20.898438 -43.476562 21.21875 -43.792969 L 21.988281 -43.023438 L 21.078125 -43.621094 L 63.480469 -108.175781 L 63.492188 -108.191406 C 63.6875 -108.464844 63.804688 -108.671875 63.851562 -108.820312 L 63.855469 -108.796875 C 63.863281 -108.707031 63.890625 -108.621094 63.949219 -108.539062 L 63.867188 -108.660156 L 63.820312 -108.796875 C 63.863281 -108.671875 63.941406 -108.582031 64.050781 -108.527344 L 64.058594 -108.519531 C 64.019531 -108.527344 63.96875 -108.53125 63.902344 -108.53125 C 63.449219 -108.53125 63.074219 -108.640625 62.777344 -108.867188 C 62.382812 -109.164062 62.183594 -109.570312 62.183594 -110.089844 C 62.183594 -110.601562 62.34375 -111.015625 62.660156 -111.335938 C 62.976562 -111.652344 63.390625 -111.8125 63.902344 -111.8125 L 69.757812 -111.8125 C 70.277344 -111.8125 70.6875 -111.613281 70.980469 -111.21875 C 71.207031 -110.917969 71.316406 -110.542969 71.316406 -110.089844 C 71.316406 -109.632812 71.171875 -109.257812 70.882812 -108.964844 C 70.589844 -108.675781 70.214844 -108.53125 69.757812 -108.53125 C 68.359375 -108.53125 67.1875 -107.796875 66.242188 -106.335938 L 27.164062 -47.011719 L 26.257812 -47.613281 L 27.078125 -48.324219 L 65.515625 -4.035156 C 66.070312 -3.386719 66.796875 -2.804688 67.691406 -2.285156 C 68.523438 -1.804688 69.210938 -1.5625 69.757812 -1.5625 Z M 69.757812 0.613281 C 68.824219 0.613281 67.773438 0.273438 66.601562 -0.402344 C 65.492188 -1.046875 64.582031 -1.78125 63.875 -2.609375 L 24.894531 -47.519531 L 64.414062 -107.519531 C 65.789062 -109.640625 67.570312 -110.703125 69.757812 -110.703125 C 69.613281 -110.703125 69.476562 -110.636719 69.34375 -110.503906 C 69.210938 -110.371094 69.144531 -110.234375 69.144531 -110.089844 L 69.144531 -110.105469 C 69.160156 -110.042969 69.195312 -109.976562 69.242188 -109.914062 C 69.378906 -109.730469 69.550781 -109.636719 69.757812 -109.636719 L 63.902344 -109.636719 C 63.992188 -109.636719 64.089844 -109.691406 64.199219 -109.796875 C 64.304688 -109.902344 64.359375 -110.003906 64.359375 -110.089844 C 64.359375 -110.296875 64.265625 -110.46875 64.082031 -110.605469 C 64.015625 -110.652344 63.953125 -110.6875 63.890625 -110.703125 L 63.902344 -110.703125 C 64.953125 -110.703125 65.613281 -110.296875 65.882812 -109.488281 L 64.851562 -109.140625 L 65.757812 -109.746094 C 66.246094 -109.011719 66.082031 -108.074219 65.261719 -106.929688 L 64.378906 -107.5625 L 65.289062 -106.964844 L 22.835938 -42.335938 L 22.753906 -42.253906 C 22.863281 -42.363281 22.914062 -42.511719 22.914062 -42.707031 L 22.914062 -42.550781 L 21.828125 -42.550781 L 22.597656 -43.320312 L 23.074219 -42.84375 L 23.074219 -42.234375 L 21.988281 -42.234375 L 22.789062 -42.964844 L 59.011719 -3.265625 L 58.210938 -2.53125 L 58.976562 -3.300781 C 60.007812 -2.269531 60.417969 -1.347656 60.214844 -0.527344 L 60.183594 -0.410156 L 60.132812 -0.304688 C 59.824219 0.308594 59.238281 0.613281 58.367188 0.613281 C 58.507812 0.613281 58.648438 0.546875 58.78125 0.414062 C 58.914062 0.28125 58.980469 0.140625 58.980469 0 C 58.980469 -0.140625 58.914062 -0.28125 58.78125 -0.414062 C 58.648438 -0.546875 58.507812 -0.613281 58.367188 -0.613281 L 69.757812 -0.613281 L 69.769531 -0.609375 C 69.707031 -0.59375 69.644531 -0.5625 69.578125 -0.515625 C 69.394531 -0.375 69.300781 -0.203125 69.300781 0 C 69.300781 0.203125 69.394531 0.375 69.578125 0.515625 C 69.644531 0.5625 69.707031 0.59375 69.769531 0.609375 Z M 69.757812 0.613281 "/></g></g></g><g fill="#000000" fill-opacity="1"><g transform="translate(1.249188, 121.963846)"><g><path d="M 69.75 -0.46875 C 70.070312 -0.46875 70.234375 -0.3125 70.234375 0 C 70.234375 0.3125 70.070312 0.46875 69.75 0.46875 L 58.84375 0.46875 C 58.519531 0.46875 58.359375 0.3125 58.359375 0 C 58.359375 -0.3125 58.519531 -0.46875 58.84375 -0.46875 C 60.53125 -0.46875 61.375 -1.3125 61.375 -3 L 61.375 -54.5625 L 16.765625 -54.5625 L 16.765625 -3 C 16.765625 -1.3125 17.554688 -0.46875 19.140625 -0.46875 C 19.554688 -0.46875 19.765625 -0.3125 19.765625 0 C 19.765625 0.3125 19.554688 0.46875 19.140625 0.46875 L 8.21875 0.46875 C 7.90625 0.46875 7.75 0.3125 7.75 0 C 7.75 -0.3125 7.90625 -0.46875 8.21875 -0.46875 C 9.90625 -0.46875 10.75 -1.3125 10.75 -3 L 10.75 -107.234375 C 10.75 -108.816406 9.90625 -109.609375 8.21875 -109.609375 C 7.90625 -109.609375 7.75 -109.769531 7.75 -110.09375 C 7.75 -110.507812 7.90625 -110.71875 8.21875 -110.71875 L 19.140625 -110.71875 C 19.554688 -110.71875 19.765625 -110.507812 19.765625 -110.09375 C 19.765625 -109.769531 19.554688 -109.609375 19.140625 -109.609375 C 17.554688 -109.609375 16.765625 -108.816406 16.765625 -107.234375 L 16.765625 -55.671875 L 61.375 -55.671875 L 61.375 -107.234375 C 61.375 -108.816406 60.53125 -109.609375 58.84375 -109.609375 C 58.519531 -109.609375 58.359375 -109.769531 58.359375 -110.09375 C 58.359375 -110.507812 58.519531 -110.71875 58.84375 -110.71875 L 69.75 -110.71875 C 70.070312 -110.71875 70.234375 -110.507812 70.234375 -110.09375 C 70.234375 -109.769531 70.070312 -109.609375 69.75 -109.609375 C 68.164062 -109.609375 67.375 -108.816406 67.375 -107.234375 L 67.375 -3 C 67.375 -1.3125 68.164062 -0.46875 69.75 -0.46875 Z M 69.75 -0.46875 "/></g></g></g><g fill="#000000" fill-opacity="1"><g transform="translate(79.382407, 121.963846)"><g><path d="M 61.21875 -107.71875 C 61.101562 -107.820312 61.046875 -107.875 61.046875 -107.875 C 60.734375 -108.082031 60.679688 -108.289062 60.890625 -108.5 C 61.109375 -108.820312 61.320312 -108.878906 61.53125 -108.671875 C 61.53125 -108.671875 61.582031 -108.671875 61.6875 -108.671875 C 70.125 -105.078125 77.082031 -98.484375 82.5625 -88.890625 C 82.664062 -88.679688 82.613281 -88.472656 82.40625 -88.265625 L 79.5625 -85.578125 C 79.457031 -85.460938 79.351562 -85.40625 79.25 -85.40625 C 79.25 -85.40625 79.195312 -85.40625 79.09375 -85.40625 C 78.875 -85.40625 78.765625 -85.515625 78.765625 -85.734375 C 78.140625 -87.941406 77.242188 -90.390625 76.078125 -93.078125 C 74.921875 -95.773438 73.15625 -98.414062 70.78125 -101 C 68.40625 -103.582031 65.21875 -105.820312 61.21875 -107.71875 Z M 79.5625 -24.671875 L 82.40625 -21.828125 C 82.613281 -21.617188 82.664062 -21.40625 82.5625 -21.1875 C 77.1875 -11.8125 70.332031 -5.273438 62 -1.578125 C 62 -1.578125 61.945312 -1.578125 61.84375 -1.578125 C 61.84375 -1.472656 61.789062 -1.421875 61.6875 -1.421875 L 61.53125 -1.421875 C 61.53125 -1.421875 61.476562 -1.367188 61.375 -1.265625 C 57.15625 0.523438 52.832031 1.421875 48.40625 1.421875 L 47.296875 1.265625 C 41.492188 1.160156 36.085938 -0.390625 31.078125 -3.390625 C 26.066406 -6.398438 21.660156 -10.460938 17.859375 -15.578125 C 14.066406 -20.691406 11.117188 -26.625 9.015625 -33.375 C 6.910156 -40.125 5.859375 -47.347656 5.859375 -55.046875 C 5.859375 -62.742188 6.910156 -69.96875 9.015625 -76.71875 C 11.117188 -83.46875 14.066406 -89.394531 17.859375 -94.5 C 21.660156 -99.613281 26.066406 -103.671875 31.078125 -106.671875 C 36.085938 -109.679688 41.492188 -111.296875 47.296875 -111.515625 L 48.40625 -111.515625 C 48.820312 -111.515625 49.03125 -111.300781 49.03125 -110.875 C 49.03125 -110.5625 48.820312 -110.40625 48.40625 -110.40625 L 47.453125 -110.40625 C 40.910156 -110.082031 35.082031 -107.46875 29.96875 -102.5625 C 24.851562 -97.664062 20.789062 -91.078125 17.78125 -82.796875 C 14.78125 -74.523438 13.28125 -65.273438 13.28125 -55.046875 C 13.28125 -44.816406 14.78125 -35.585938 17.78125 -27.359375 C 20.789062 -19.140625 24.851562 -12.550781 29.96875 -7.59375 C 35.082031 -2.632812 40.859375 0 47.296875 0.3125 L 48.40625 0.3125 C 52.832031 0.3125 57.15625 -0.632812 61.375 -2.53125 C 61.375 -2.53125 61.425781 -2.53125 61.53125 -2.53125 C 65.425781 -4.425781 68.535156 -6.664062 70.859375 -9.25 C 73.179688 -11.832031 74.921875 -14.441406 76.078125 -17.078125 C 77.242188 -19.710938 78.140625 -22.140625 78.765625 -24.359375 C 78.765625 -24.566406 78.875 -24.722656 79.09375 -24.828125 C 79.300781 -24.828125 79.457031 -24.773438 79.5625 -24.671875 Z M 79.5625 -24.671875 "/></g></g></g><g fill="#000000" fill-opacity="1"><g transform="translate(165.898336, 121.963846)"><g><path d="M 60.578125 -110.71875 C 61.003906 -110.71875 61.21875 -110.507812 61.21875 -110.09375 C 61.21875 -109.769531 61.003906 -109.609375 60.578125 -109.609375 C 58.992188 -109.609375 58.203125 -108.816406 58.203125 -107.234375 L 58.203125 -27.046875 C 58.203125 -21.773438 56.9375 -17.003906 54.40625 -12.734375 C 51.875 -8.460938 48.472656 -5.0625 44.203125 -2.53125 C 39.929688 0 35.160156 1.316406 29.890625 1.421875 C 22.085938 1.421875 15.445312 -1.367188 9.96875 -6.953125 C 9.644531 -7.171875 9.429688 -7.332031 9.328125 -7.4375 C 9.328125 -7.539062 9.273438 -7.644531 9.171875 -7.75 C 9.066406 -7.851562 8.960938 -7.90625 8.859375 -7.90625 C 8.648438 -8.226562 8.382812 -8.546875 8.0625 -8.859375 C 3.738281 -14.128906 1.578125 -20.191406 1.578125 -27.046875 C 1.578125 -27.359375 1.738281 -27.515625 2.0625 -27.515625 L 4.265625 -27.515625 C 4.484375 -27.515625 4.644531 -27.460938 4.75 -27.359375 C 4.851562 -27.253906 4.851562 -27.097656 4.75 -26.890625 C 4.53125 -25.410156 4.5 -22.984375 4.65625 -19.609375 C 4.820312 -16.234375 6.273438 -12.914062 9.015625 -9.65625 C 9.222656 -9.332031 9.4375 -9.015625 9.65625 -8.703125 C 9.757812 -8.703125 9.863281 -8.648438 9.96875 -8.546875 C 9.96875 -8.441406 10.019531 -8.332031 10.125 -8.21875 C 10.226562 -8.113281 10.4375 -7.90625 10.75 -7.59375 C 16.03125 -2.320312 22.410156 0.3125 29.890625 0.3125 C 34.003906 0.3125 37.75 -0.925781 41.125 -3.40625 C 44.5 -5.882812 47.1875 -9.175781 49.1875 -13.28125 C 51.195312 -17.394531 52.203125 -21.984375 52.203125 -27.046875 L 52.203125 -107.234375 C 52.203125 -108.816406 51.410156 -109.609375 49.828125 -109.609375 C 49.398438 -109.609375 49.1875 -109.769531 49.1875 -110.09375 C 49.1875 -110.507812 49.398438 -110.71875 49.828125 -110.71875 Z M 60.578125 -110.71875 "/></g></g></g><g fill="#000000" fill-opacity="1"><g transform="translate(234.225358, 121.963846)"><g><path d="M 19.140625 -109.609375 C 17.554688 -109.609375 16.765625 -108.816406 16.765625 -107.234375 L 16.765625 -3 C 16.765625 -1.3125 17.554688 -0.46875 19.140625 -0.46875 C 19.554688 -0.46875 19.765625 -0.3125 19.765625 0 C 19.765625 0.3125 19.554688 0.46875 19.140625 0.46875 L 8.21875 0.46875 C 7.90625 0.46875 7.75 0.3125 7.75 0 C 7.75 -0.3125 7.90625 -0.46875 8.21875 -0.46875 C 9.90625 -0.46875 10.75 -1.3125 10.75 -3 L 10.75 -107.234375 C 10.75 -108.816406 9.90625 -109.609375 8.21875 -109.609375 C 7.90625 -109.609375 7.75 -109.769531 7.75 -110.09375 C 7.75 -110.507812 7.90625 -110.71875 8.21875 -110.71875 L 19.140625 -110.71875 C 19.554688 -110.71875 19.765625 -110.507812 19.765625 -110.09375 C 19.765625 -109.769531 19.554688 -109.609375 19.140625 -109.609375 Z M 69.75 -0.46875 C 70.175781 -0.46875 70.390625 -0.3125 70.390625 0 C 70.390625 0.3125 70.175781 0.46875 69.75 0.46875 L 58.359375 0.46875 C 58.046875 0.46875 57.890625 0.3125 57.890625 0 C 57.890625 -0.3125 58.046875 -0.46875 58.359375 -0.46875 C 58.785156 -0.46875 59.050781 -0.578125 59.15625 -0.796875 C 59.257812 -1.210938 58.941406 -1.789062 58.203125 -2.53125 L 21.984375 -42.234375 C 21.984375 -42.234375 21.984375 -42.257812 21.984375 -42.3125 C 21.984375 -42.363281 21.984375 -42.390625 21.984375 -42.390625 C 21.984375 -42.390625 21.929688 -42.441406 21.828125 -42.546875 C 21.828125 -42.546875 21.828125 -42.570312 21.828125 -42.625 C 21.828125 -42.675781 21.828125 -42.703125 21.828125 -42.703125 C 21.828125 -42.804688 21.878906 -42.910156 21.984375 -43.015625 L 64.375 -107.5625 C 64.90625 -108.300781 65.0625 -108.828125 64.84375 -109.140625 C 64.738281 -109.453125 64.425781 -109.609375 63.90625 -109.609375 C 63.476562 -109.609375 63.265625 -109.769531 63.265625 -110.09375 C 63.265625 -110.507812 63.476562 -110.71875 63.90625 -110.71875 L 69.75 -110.71875 C 70.070312 -110.71875 70.234375 -110.507812 70.234375 -110.09375 C 70.234375 -109.769531 70.070312 -109.609375 69.75 -109.609375 C 67.957031 -109.609375 66.484375 -108.710938 65.328125 -106.921875 L 26.25 -47.609375 L 64.6875 -3.328125 C 65.320312 -2.585938 66.140625 -1.925781 67.140625 -1.34375 C 68.140625 -0.757812 69.007812 -0.46875 69.75 -0.46875 Z M 69.75 -0.46875 "/></g></g></g></g></g><g transform="matrix(1, 0, 0, 1, 108, 218)"><g clip-path="url(#9e80657f6b)"><g fill="#000000" fill-opacity="1"><g transform="translate(0.8722, 50.401411)"><g><path d="M 41.5 -39.609375 C 43.25 -39.609375 44.125 -38.910156 44.125 -37.515625 C 44.125 -35.441406 42.519531 -33.113281 39.3125 -30.53125 C 36.257812 -28.09375 32.507812 -25.984375 28.0625 -24.203125 C 23.394531 -22.347656 19.09375 -21.328125 15.15625 -21.140625 C 9.332031 -14.710938 6.421875 -9.671875 6.421875 -6.015625 C 6.421875 -3.117188 7.796875 -1.382812 10.546875 -0.8125 C 10.546875 -5.90625 12.296875 -10.515625 15.796875 -14.640625 C 17.960938 -17.179688 20.421875 -18.953125 23.171875 -19.953125 C 24.535156 -20.460938 25.960938 -20.71875 27.453125 -20.71875 C 28.953125 -20.71875 30.117188 -20.351562 30.953125 -19.625 C 31.785156 -18.90625 32.203125 -17.976562 32.203125 -16.84375 C 32.203125 -15.71875 31.957031 -14.523438 31.46875 -13.265625 C 30.988281 -12.015625 30.316406 -10.765625 29.453125 -9.515625 C 28.585938 -8.273438 27.535156 -7.078125 26.296875 -5.921875 C 25.066406 -4.765625 23.695312 -3.742188 22.1875 -2.859375 C 18.894531 -0.910156 15.457031 0.0625 11.875 0.0625 L 11.625 0.0625 C 11.539062 0.0625 11.453125 0.0507812 11.359375 0.03125 C 11.472656 3.3125 12.03125 5.597656 13.03125 6.890625 C 13.101562 6.984375 13.140625 7.0625 13.140625 7.125 L 13.140625 7.265625 C 13.140625 7.359375 13.054688 7.40625 12.890625 7.40625 C 12.171875 7.40625 11.5 5.914062 10.875 2.9375 C 10.6875 2.03125 10.578125 1.039062 10.546875 -0.03125 C 7.773438 -0.40625 5.914062 -1.828125 4.96875 -4.296875 C 4.664062 -5.109375 4.515625 -6.039062 4.515625 -7.09375 C 4.515625 -11.5 6.523438 -16.285156 10.546875 -21.453125 C 7.378906 -22.171875 5.363281 -23.800781 4.5 -26.34375 C 4.226562 -27.132812 4.09375 -27.984375 4.09375 -28.890625 C 4.09375 -29.796875 4.335938 -30.742188 4.828125 -31.734375 C 5.316406 -32.722656 6 -33.679688 6.875 -34.609375 C 7.757812 -35.546875 8.804688 -36.425781 10.015625 -37.25 C 11.234375 -38.082031 12.566406 -38.8125 14.015625 -39.4375 C 17.179688 -40.789062 20.40625 -41.46875 23.6875 -41.46875 C 25.21875 -41.46875 25.984375 -41.304688 25.984375 -40.984375 C 25.984375 -40.835938 25.859375 -40.765625 25.609375 -40.765625 L 23.546875 -40.875 C 19.566406 -40.875 15.59375 -39.535156 11.625 -36.859375 C 9.050781 -35.140625 7.226562 -33.207031 6.15625 -31.0625 C 5.59375 -29.945312 5.3125 -28.953125 5.3125 -28.078125 C 5.3125 -27.203125 5.4375 -26.476562 5.6875 -25.90625 C 5.945312 -25.332031 6.3125 -24.800781 6.78125 -24.3125 C 7.800781 -23.257812 9.222656 -22.523438 11.046875 -22.109375 C 15.003906 -27.003906 19.800781 -31.109375 25.4375 -34.421875 C 31.320312 -37.878906 36.675781 -39.609375 41.5 -39.609375 Z M 43.453125 -37.421875 C 43.453125 -38.421875 42.710938 -38.921875 41.234375 -38.921875 C 38.523438 -38.921875 34.632812 -37.175781 29.5625 -33.6875 C 24.625 -30.332031 20.054688 -26.40625 15.859375 -21.90625 C 21.078125 -22.46875 26.972656 -24.609375 33.546875 -28.328125 C 37.453125 -30.523438 40.3125 -32.660156 42.125 -34.734375 C 43.007812 -35.753906 43.453125 -36.648438 43.453125 -37.421875 Z M 11.359375 -0.703125 C 11.492188 -0.679688 11.628906 -0.671875 11.765625 -0.671875 L 12.1875 -0.671875 C 14.570312 -0.671875 17.195312 -1.75 20.0625 -3.90625 C 22.613281 -5.820312 24.847656 -8.175781 26.765625 -10.96875 C 28.648438 -13.71875 29.59375 -15.976562 29.59375 -17.75 C 29.59375 -18.539062 29.382812 -19.101562 28.96875 -19.4375 C 28.5625 -19.78125 27.863281 -19.953125 26.875 -19.953125 C 25.882812 -19.953125 24.796875 -19.722656 23.609375 -19.265625 C 22.421875 -18.816406 21.242188 -18.175781 20.078125 -17.34375 C 18.921875 -16.519531 17.8125 -15.523438 16.75 -14.359375 C 15.695312 -13.191406 14.769531 -11.890625 13.96875 -10.453125 C 12.226562 -7.367188 11.359375 -4.128906 11.359375 -0.734375 Z M 11.359375 -0.703125 "/></g></g></g><g fill="#000000" fill-opacity="1"><g transform="translate(39.030132, 50.401411)"><g><path d="M 12.71875 -4.546875 C 12.019531 -4.546875 11.507812 -4.832031 11.1875 -5.40625 C 8.945312 -2.851562 6.523438 -1.164062 3.921875 -0.34375 C 3.054688 -0.0703125 2.210938 0.0625 1.390625 0.0625 C 0.578125 0.0625 -0.117188 -0.03125 -0.703125 -0.21875 C -1.285156 -0.414062 -1.765625 -0.679688 -2.140625 -1.015625 C -3.671875 -2.335938 -3.820312 -4.609375 -2.59375 -7.828125 C -2.125 -9.085938 -1.515625 -10.265625 -0.765625 -11.359375 C -0.0234375 -12.453125 0.804688 -13.460938 1.734375 -14.390625 C 2.671875 -15.328125 3.675781 -16.164062 4.75 -16.90625 C 7.175781 -18.539062 9.550781 -19.359375 11.875 -19.359375 C 12.875 -19.359375 13.734375 -19.097656 14.453125 -18.578125 C 15.179688 -18.066406 15.570312 -17.320312 15.625 -16.34375 C 15.6875 -15.375 15.628906 -14.46875 15.453125 -13.625 C 15.285156 -12.78125 15.035156 -11.929688 14.703125 -11.078125 C 14.023438 -9.347656 13.0625 -7.707031 11.8125 -6.15625 C 11.945312 -5.613281 12.3125 -5.34375 12.90625 -5.34375 C 13.5 -5.34375 14.0625 -5.476562 14.59375 -5.75 C 15.132812 -6.019531 15.671875 -6.359375 16.203125 -6.765625 C 16.742188 -7.171875 17.273438 -7.625 17.796875 -8.125 C 18.316406 -8.625 18.789062 -9.097656 19.21875 -9.546875 L 20.296875 -10.734375 C 20.597656 -11.097656 20.816406 -11.34375 20.953125 -11.46875 L 21.5625 -11 C 21.320312 -10.769531 21.007812 -10.445312 20.625 -10.03125 C 20.25 -9.613281 19.828125 -9.171875 19.359375 -8.703125 C 19.359375 -8.703125 18.859375 -8.210938 17.859375 -7.234375 C 15.921875 -5.441406 14.207031 -4.546875 12.71875 -4.546875 Z M 0.984375 -1.015625 C 1.285156 -0.867188 1.710938 -0.796875 2.265625 -0.796875 C 3.484375 -0.796875 5.054688 -1.484375 6.984375 -2.859375 C 8.453125 -3.910156 9.757812 -5.125 10.90625 -6.5 L 10.90625 -6.609375 C 10.90625 -8.210938 11.507812 -9.421875 12.71875 -10.234375 C 13.039062 -10.460938 13.34375 -10.625 13.625 -10.71875 C 14.53125 -12.632812 14.953125 -14.207031 14.890625 -15.4375 C 14.785156 -17.375 14.070312 -18.34375 12.75 -18.34375 C 10.519531 -18.34375 7.398438 -15.835938 3.390625 -10.828125 C 0.804688 -7.585938 -0.40625 -5.0625 -0.25 -3.25 C -0.25 -2.21875 0.160156 -1.472656 0.984375 -1.015625 Z M 0.984375 -1.015625 "/></g></g></g><g fill="#000000" fill-opacity="1"><g transform="translate(59.776741, 50.401411)"><g><path d="M -2.734375 -1.671875 C -2.734375 -1.046875 -2.28125 -0.734375 -1.375 -0.734375 C -0.476562 -0.734375 0.476562 -0.972656 1.5 -1.453125 C 2.53125 -1.929688 3.550781 -2.535156 4.5625 -3.265625 C 5.570312 -4.003906 6.546875 -4.8125 7.484375 -5.6875 C 8.429688 -6.570312 9.289062 -7.410156 10.0625 -8.203125 L 12.015625 -10.296875 C 12.546875 -10.890625 12.90625 -11.28125 13.09375 -11.46875 L 13.65625 -11 C 13.445312 -10.789062 13.0625 -10.375 12.5 -9.75 C 11.945312 -9.125 11.269531 -8.40625 10.46875 -7.59375 C 9.664062 -6.789062 8.769531 -5.9375 7.78125 -5.03125 C 6.789062 -4.125 5.757812 -3.296875 4.6875 -2.546875 C 2.1875 -0.804688 -0.00390625 0.0625 -1.890625 0.0625 C -2.679688 0.0625 -3.335938 -0.15625 -3.859375 -0.59375 C -4.378906 -1.03125 -4.640625 -1.492188 -4.640625 -1.984375 C -4.640625 -2.484375 -4.613281 -2.882812 -4.5625 -3.1875 C -4.519531 -3.488281 -4.421875 -3.832031 -4.265625 -4.21875 C -4.117188 -4.613281 -3.898438 -5.066406 -3.609375 -5.578125 C -3.328125 -6.097656 -2.953125 -6.726562 -2.484375 -7.46875 L 1.84375 -13.84375 L 23.6875 -45.078125 C 25.039062 -44.890625 26.347656 -44.890625 27.609375 -45.078125 C 9.640625 -20.097656 0.335938 -7.128906 -0.296875 -6.171875 C -0.941406 -5.222656 -1.414062 -4.507812 -1.71875 -4.03125 C -2.019531 -3.550781 -2.25 -3.160156 -2.40625 -2.859375 C -2.625 -2.398438 -2.734375 -2.003906 -2.734375 -1.671875 Z M -2.734375 -1.671875 "/></g></g></g><g fill="#000000" fill-opacity="1"><g transform="translate(72.665642, 50.401411)"><g><path d="M -2.734375 -1.671875 C -2.734375 -1.046875 -2.28125 -0.734375 -1.375 -0.734375 C -0.476562 -0.734375 0.476562 -0.972656 1.5 -1.453125 C 2.53125 -1.929688 3.550781 -2.535156 4.5625 -3.265625 C 5.570312 -4.003906 6.546875 -4.8125 7.484375 -5.6875 C 8.429688 -6.570312 9.289062 -7.410156 10.0625 -8.203125 L 12.015625 -10.296875 C 12.546875 -10.890625 12.90625 -11.28125 13.09375 -11.46875 L 13.65625 -11 C 13.445312 -10.789062 13.0625 -10.375 12.5 -9.75 C 11.945312 -9.125 11.269531 -8.40625 10.46875 -7.59375 C 9.664062 -6.789062 8.769531 -5.9375 7.78125 -5.03125 C 6.789062 -4.125 5.757812 -3.296875 4.6875 -2.546875 C 2.1875 -0.804688 -0.00390625 0.0625 -1.890625 0.0625 C -2.679688 0.0625 -3.335938 -0.15625 -3.859375 -0.59375 C -4.378906 -1.03125 -4.640625 -1.492188 -4.640625 -1.984375 C -4.640625 -2.484375 -4.613281 -2.882812 -4.5625 -3.1875 C -4.519531 -3.488281 -4.421875 -3.832031 -4.265625 -4.21875 C -4.117188 -4.613281 -3.898438 -5.066406 -3.609375 -5.578125 C -3.328125 -6.097656 -2.953125 -6.726562 -2.484375 -7.46875 L 1.84375 -13.84375 L 23.6875 -45.078125 C 25.039062 -44.890625 26.347656 -44.890625 27.609375 -45.078125 C 9.640625 -20.097656 0.335938 -7.128906 -0.296875 -6.171875 C -0.941406 -5.222656 -1.414062 -4.507812 -1.71875 -4.03125 C -2.019531 -3.550781 -2.25 -3.160156 -2.40625 -2.859375 C -2.625 -2.398438 -2.734375 -2.003906 -2.734375 -1.671875 Z M -2.734375 -1.671875 "/></g></g></g><g fill="#000000" fill-opacity="1"><g transform="translate(85.554544, 50.401411)"><g><path d="M 10.921875 -2.4375 C 9.722656 -1.675781 8.429688 -1.050781 7.046875 -0.5625 C 5.660156 -0.0703125 4.347656 0.171875 3.109375 0.171875 C 1.867188 0.171875 0.921875 0.046875 0.265625 -0.203125 C -0.378906 -0.460938 -0.910156 -0.816406 -1.328125 -1.265625 C -3.097656 -3.191406 -3.085938 -6.03125 -1.296875 -9.78125 C -0.523438 -11.4375 0.640625 -12.945312 2.203125 -14.3125 C 3.765625 -15.675781 5.140625 -16.703125 6.328125 -17.390625 C 8.628906 -18.703125 10.789062 -19.359375 12.8125 -19.359375 C 14.800781 -19.359375 15.84375 -18.738281 15.9375 -17.5 C 16.070312 -15.476562 13.625 -13.28125 8.59375 -10.90625 C 6.75 -10.039062 4.421875 -9.144531 1.609375 -8.21875 C 0.492188 -6.414062 -0.0625 -4.941406 -0.0625 -3.796875 C -0.0625 -2.660156 0.234375 -1.851562 0.828125 -1.375 C 1.421875 -0.894531 2.285156 -0.65625 3.421875 -0.65625 C 4.566406 -0.65625 5.800781 -0.898438 7.125 -1.390625 C 8.457031 -1.878906 9.703125 -2.5 10.859375 -3.25 C 12.023438 -4 13.078125 -4.816406 14.015625 -5.703125 C 14.960938 -6.585938 15.796875 -7.4375 16.515625 -8.25 C 17.242188 -9.0625 17.835938 -9.765625 18.296875 -10.359375 C 18.765625 -10.953125 19.082031 -11.320312 19.25 -11.46875 L 19.84375 -11 C 19.59375 -10.789062 19.21875 -10.363281 18.71875 -9.71875 C 18.226562 -9.082031 17.597656 -8.351562 16.828125 -7.53125 C 16.066406 -6.707031 15.191406 -5.84375 14.203125 -4.9375 C 13.210938 -4.039062 12.117188 -3.207031 10.921875 -2.4375 Z M 2.265625 -9.21875 C 7.953125 -11.21875 11.613281 -13.203125 13.25 -15.171875 C 13.800781 -15.835938 14.078125 -16.476562 14.078125 -17.09375 C 14.078125 -18.15625 13.585938 -18.6875 12.609375 -18.6875 C 10.867188 -18.6875 8.703125 -17.171875 6.109375 -14.140625 C 4.296875 -12.023438 3.015625 -10.382812 2.265625 -9.21875 Z M 2.265625 -9.21875 "/></g></g></g><g fill="#000000" fill-opacity="1"><g transform="translate(104.605244, 50.401411)"><g><path d="M 14.578125 -16.984375 C 14.546875 -18.078125 13.859375 -18.625 12.515625 -18.625 C 9.785156 -18.625 6.253906 -15.78125 1.921875 -10.09375 C 0.128906 -7.71875 -0.765625 -5.566406 -0.765625 -3.640625 C -0.765625 -2.816406 -0.535156 -2.1875 -0.078125 -1.75 C 0.710938 -1.019531 1.722656 -0.65625 2.953125 -0.65625 C 4.191406 -0.65625 5.5 -0.90625 6.875 -1.40625 C 8.257812 -1.914062 9.546875 -2.554688 10.734375 -3.328125 C 11.921875 -4.109375 13.003906 -4.953125 13.984375 -5.859375 C 14.972656 -6.773438 15.820312 -7.632812 16.53125 -8.4375 C 17.25 -9.238281 17.816406 -9.921875 18.234375 -10.484375 C 18.648438 -11.046875 18.894531 -11.375 18.96875 -11.46875 L 19.59375 -11 L 18.828125 -9.984375 C 15.285156 -5.328125 11.328125 -2.207031 6.953125 -0.625 C 5.484375 -0.09375 4.097656 0.171875 2.796875 0.171875 C 1.492188 0.171875 0.476562 0.0390625 -0.25 -0.21875 C -0.988281 -0.488281 -1.601562 -0.847656 -2.09375 -1.296875 C -3.03125 -2.222656 -3.5 -3.375 -3.5 -4.75 C -3.5 -7.445312 -2.332031 -10.1875 0 -12.96875 C 1.820312 -15.15625 3.988281 -16.832031 6.5 -18 C 8.53125 -18.945312 10.507812 -19.398438 12.4375 -19.359375 C 14.132812 -19.304688 15.207031 -18.734375 15.65625 -17.640625 C 16.113281 -16.523438 15.867188 -15.503906 14.921875 -14.578125 C 14.296875 -13.941406 13.691406 -13.625 13.109375 -13.625 C 11.753906 -13.625 11.0625 -14.179688 11.03125 -15.296875 C 11.007812 -15.816406 11.207031 -16.25 11.625 -16.59375 C 12.050781 -16.945312 12.472656 -17.144531 12.890625 -17.1875 C 13.492188 -17.226562 14.054688 -17.125 14.578125 -16.875 Z M 14.578125 -16.984375 "/></g></g></g><g fill="#000000" fill-opacity="1"><g transform="translate(123.401566, 50.401411)"><g><path d="M -2.828125 -1.640625 C -2.828125 -1.078125 -2.375 -0.785156 -1.46875 -0.765625 C -0.5625 -0.742188 0.34375 -0.941406 1.25 -1.359375 C 2.164062 -1.773438 3.078125 -2.300781 3.984375 -2.9375 C 4.890625 -3.582031 5.765625 -4.300781 6.609375 -5.09375 C 7.460938 -5.894531 8.253906 -6.691406 8.984375 -7.484375 C 9.722656 -8.273438 10.382812 -9.019531 10.96875 -9.71875 L 12.4375 -11.46875 L 13.0625 -11 L 11.59375 -9.296875 C 6.332031 -3.054688 1.910156 0.0625 -1.671875 0.0625 C -2.703125 0.0625 -3.476562 -0.144531 -4 -0.5625 C -4.519531 -0.976562 -4.78125 -1.429688 -4.78125 -1.921875 C -4.78125 -2.410156 -4.753906 -2.816406 -4.703125 -3.140625 C -4.660156 -3.460938 -4.5625 -3.816406 -4.40625 -4.203125 C -4.257812 -4.585938 -4.039062 -5.039062 -3.75 -5.5625 C -3.457031 -6.09375 -3.066406 -6.734375 -2.578125 -7.484375 L 1.84375 -13.84375 L 9.125 -24.109375 L 6.890625 -24.109375 C 6.328125 -24.109375 6.046875 -24.242188 6.046875 -24.515625 C 6.046875 -24.796875 6.40625 -24.9375 7.125 -24.9375 L 9.703125 -24.9375 L 14.921875 -32.28125 C 16.242188 -32.070312 17.554688 -32.070312 18.859375 -32.28125 L 13.40625 -24.9375 L 20.6875 -24.9375 C 21.21875 -24.9375 21.484375 -24.796875 21.484375 -24.515625 C 21.484375 -24.242188 21.25 -24.109375 20.78125 -24.109375 L 12.78125 -24.109375 L 1.078125 -8.203125 C -0.941406 -5.347656 -2.097656 -3.59375 -2.390625 -2.9375 C -2.679688 -2.28125 -2.828125 -1.847656 -2.828125 -1.640625 Z M -2.828125 -1.640625 "/></g></g></g><g fill="#000000" fill-opacity="1"><g transform="translate(135.640377, 50.401411)"><g><path d="M 14.96875 -25.546875 C 14.695312 -25.304688 14.390625 -25.113281 14.046875 -24.96875 C 13.710938 -24.832031 13.328125 -24.765625 12.890625 -24.765625 C 12.453125 -24.765625 12.078125 -24.925781 11.765625 -25.25 C 11.460938 -25.582031 11.3125 -25.957031 11.3125 -26.375 C 11.3125 -26.789062 11.382812 -27.15625 11.53125 -27.46875 C 11.6875 -27.789062 11.894531 -28.078125 12.15625 -28.328125 C 12.695312 -28.890625 13.289062 -29.171875 13.9375 -29.171875 C 14.59375 -29.171875 15.078125 -28.992188 15.390625 -28.640625 C 15.703125 -28.296875 15.859375 -27.914062 15.859375 -27.5 C 15.859375 -27.082031 15.773438 -26.710938 15.609375 -26.390625 C 15.453125 -26.078125 15.238281 -25.796875 14.96875 -25.546875 Z M -3 -1.625 C -3 -1.03125 -2.441406 -0.734375 -1.328125 -0.734375 C -0.210938 -0.734375 0.835938 -0.988281 1.828125 -1.5 C 2.816406 -2.007812 3.8125 -2.644531 4.8125 -3.40625 C 5.820312 -4.164062 6.800781 -5 7.75 -5.90625 L 10.296875 -8.453125 C 11.046875 -9.242188 11.664062 -9.925781 12.15625 -10.5 C 12.644531 -11.070312 12.9375 -11.40625 13.03125 -11.5 L 13.59375 -11 C 13.40625 -10.8125 13.050781 -10.410156 12.53125 -9.796875 C 12.019531 -9.179688 11.375 -8.460938 10.59375 -7.640625 C 9.820312 -6.828125 8.957031 -5.96875 8 -5.0625 C 7.039062 -4.15625 6.03125 -3.328125 4.96875 -2.578125 C 2.539062 -0.816406 0.414062 0.0625 -1.40625 0.0625 C -2.582031 0.0625 -3.515625 -0.148438 -4.203125 -0.578125 C -4.898438 -1.003906 -5.25 -1.488281 -5.25 -2.03125 C -5.25 -2.582031 -5.191406 -3.070312 -5.078125 -3.5 C -4.972656 -3.9375 -4.769531 -4.457031 -4.46875 -5.0625 C -4.164062 -5.664062 -3.742188 -6.367188 -3.203125 -7.171875 C -2.671875 -7.984375 -1.972656 -8.953125 -1.109375 -10.078125 C -0.253906 -11.210938 0.78125 -12.523438 2 -14.015625 L 6.359375 -19.171875 C 6.585938 -19.109375 7.050781 -19.078125 7.75 -19.078125 L 9.078125 -19.078125 C 9.566406 -19.078125 9.960938 -19.097656 10.265625 -19.140625 C 4.023438 -11.691406 0.515625 -7.453125 -0.265625 -6.421875 C -1.046875 -5.398438 -1.625 -4.597656 -2 -4.015625 C -2.664062 -3.015625 -3 -2.21875 -3 -1.625 Z M -3 -1.625 "/></g></g></g><g fill="#000000" fill-opacity="1"><g transform="translate(148.44449, 50.401411)"><g><path d="M 12.71875 -4.546875 C 12.019531 -4.546875 11.507812 -4.832031 11.1875 -5.40625 C 8.945312 -2.851562 6.523438 -1.164062 3.921875 -0.34375 C 3.054688 -0.0703125 2.210938 0.0625 1.390625 0.0625 C 0.578125 0.0625 -0.117188 -0.03125 -0.703125 -0.21875 C -1.285156 -0.414062 -1.765625 -0.679688 -2.140625 -1.015625 C -3.671875 -2.335938 -3.820312 -4.609375 -2.59375 -7.828125 C -2.125 -9.085938 -1.515625 -10.265625 -0.765625 -11.359375 C -0.0234375 -12.453125 0.804688 -13.460938 1.734375 -14.390625 C 2.671875 -15.328125 3.675781 -16.164062 4.75 -16.90625 C 7.175781 -18.539062 9.550781 -19.359375 11.875 -19.359375 C 12.875 -19.359375 13.734375 -19.097656 14.453125 -18.578125 C 15.179688 -18.066406 15.570312 -17.320312 15.625 -16.34375 C 15.6875 -15.375 15.628906 -14.46875 15.453125 -13.625 C 15.285156 -12.78125 15.035156 -11.929688 14.703125 -11.078125 C 14.023438 -9.347656 13.0625 -7.707031 11.8125 -6.15625 C 11.945312 -5.613281 12.3125 -5.34375 12.90625 -5.34375 C 13.5 -5.34375 14.0625 -5.476562 14.59375 -5.75 C 15.132812 -6.019531 15.671875 -6.359375 16.203125 -6.765625 C 16.742188 -7.171875 17.273438 -7.625 17.796875 -8.125 C 18.316406 -8.625 18.789062 -9.097656 19.21875 -9.546875 L 20.296875 -10.734375 C 20.597656 -11.097656 20.816406 -11.34375 20.953125 -11.46875 L 21.5625 -11 C 21.320312 -10.769531 21.007812 -10.445312 20.625 -10.03125 C 20.25 -9.613281 19.828125 -9.171875 19.359375 -8.703125 C 19.359375 -8.703125 18.859375 -8.210938 17.859375 -7.234375 C 15.921875 -5.441406 14.207031 -4.546875 12.71875 -4.546875 Z M 0.984375 -1.015625 C 1.285156 -0.867188 1.710938 -0.796875 2.265625 -0.796875 C 3.484375 -0.796875 5.054688 -1.484375 6.984375 -2.859375 C 8.453125 -3.910156 9.757812 -5.125 10.90625 -6.5 L 10.90625 -6.609375 C 10.90625 -8.210938 11.507812 -9.421875 12.71875 -10.234375 C 13.039062 -10.460938 13.34375 -10.625 13.625 -10.71875 C 14.53125 -12.632812 14.953125 -14.207031 14.890625 -15.4375 C 14.785156 -17.375 14.070312 -18.34375 12.75 -18.34375 C 10.519531 -18.34375 7.398438 -15.835938 3.390625 -10.828125 C 0.804688 -7.585938 -0.40625 -5.0625 -0.25 -3.25 C -0.25 -2.21875 0.160156 -1.472656 0.984375 -1.015625 Z M 0.984375 -1.015625 "/></g></g></g><g clip-path="url(#a9d734b257)"><g fill="#000000" fill-opacity="1"><g transform="translate(169.191099, 50.401411)"><g><path d="M 1.015625 -0.53125 C 0.503906 -0.625 -0.0546875 -0.671875 -0.671875 -0.671875 C -1.671875 -0.671875 -2.550781 -0.578125 -3.3125 -0.390625 L 6.5 -14.421875 C 7.726562 -16.128906 8.359375 -17.144531 8.390625 -17.46875 C 8.472656 -18.09375 8.273438 -18.40625 7.796875 -18.40625 C 7.097656 -18.40625 5.363281 -16.679688 2.59375 -13.234375 L 0.796875 -11 C 0.640625 -10.914062 0.476562 -10.953125 0.3125 -11.109375 C 0.15625 -11.273438 0.117188 -11.394531 0.203125 -11.46875 C 0.742188 -12.0625 1.359375 -12.800781 2.046875 -13.6875 C 2.734375 -14.582031 3.457031 -15.445312 4.21875 -16.28125 C 6.0625 -18.332031 7.59375 -19.359375 8.8125 -19.359375 C 10.882812 -19.359375 11.546875 -18.296875 10.796875 -16.171875 C 10.648438 -15.710938 10.320312 -15.128906 9.8125 -14.421875 L 3.875 -6.15625 L 4.015625 -5.84375 C 8.765625 -11.050781 12.140625 -14.492188 14.140625 -16.171875 C 16.035156 -17.753906 17.445312 -18.679688 18.375 -18.953125 C 19.3125 -19.222656 20.078125 -19.359375 20.671875 -19.359375 C 21.265625 -19.359375 21.773438 -19.273438 22.203125 -19.109375 C 22.628906 -18.941406 22.972656 -18.722656 23.234375 -18.453125 C 23.722656 -17.960938 23.960938 -17.375 23.953125 -16.6875 C 23.941406 -16 23.804688 -15.296875 23.546875 -14.578125 C 23.296875 -13.867188 22.875 -13.023438 22.28125 -12.046875 C 21.007812 -10.023438 18.878906 -7.394531 15.890625 -4.15625 C 14.640625 -2.851562 13.984375 -2.09375 13.921875 -1.875 C 13.867188 -1.65625 13.84375 -1.492188 13.84375 -1.390625 C 13.84375 -0.953125 14.421875 -0.734375 15.578125 -0.734375 C 16.742188 -0.734375 17.832031 -0.972656 18.84375 -1.453125 C 19.851562 -1.929688 20.84375 -2.535156 21.8125 -3.265625 C 22.78125 -4.003906 23.703125 -4.8125 24.578125 -5.6875 C 25.453125 -6.570312 26.238281 -7.410156 26.9375 -8.203125 C 27.632812 -9.003906 28.21875 -9.703125 28.6875 -10.296875 C 29.15625 -10.890625 29.476562 -11.28125 29.65625 -11.46875 L 30.25 -11 C 30.0625 -10.789062 29.722656 -10.375 29.234375 -9.75 C 28.742188 -9.125 28.132812 -8.40625 27.40625 -7.59375 C 26.675781 -6.789062 25.851562 -5.9375 24.9375 -5.03125 C 24.03125 -4.125 23.066406 -3.296875 22.046875 -2.546875 C 19.671875 -0.804688 17.523438 0.0625 15.609375 0.0625 C 13.910156 0.0625 12.726562 -0.363281 12.0625 -1.21875 C 11.863281 -1.476562 11.765625 -1.785156 11.765625 -2.140625 C 11.765625 -2.503906 11.8125 -2.914062 11.90625 -3.375 C 12.007812 -3.84375 12.257812 -4.429688 12.65625 -5.140625 C 13.539062 -6.671875 14.796875 -8.347656 16.421875 -10.171875 C 18.054688 -12.003906 19.128906 -13.238281 19.640625 -13.875 C 20.148438 -14.519531 20.554688 -15.078125 20.859375 -15.546875 C 21.421875 -16.453125 21.703125 -17.148438 21.703125 -17.640625 C 21.703125 -18.316406 21.253906 -18.65625 20.359375 -18.65625 C 18.484375 -18.65625 15.398438 -16.546875 11.109375 -12.328125 C 8.941406 -10.210938 6.453125 -7.429688 3.640625 -3.984375 Z M 1.015625 -0.53125 "/></g></g></g></g></g></g></svg>